<?xml version="1.0" encoding="UTF-8" standalone="no"?>
<svg
   xmlns:dc="http://purl.org/dc/elements/1.1/"
   xmlns:cc="http://creativecommons.org/ns#"
   xmlns:rdf="http://www.w3.org/1999/02/22-rdf-syntax-ns#"
   xmlns:svg="http://www.w3.org/2000/svg"
   xmlns="http://www.w3.org/2000/svg"
   id="svg8"
   version="1.1"
   viewBox="0 0 192 192"
   height="192mm"
   width="192mm">
  <defs
     id="defs2" />
  <metadata
     id="metadata5">
    <rdf:RDF>
      <cc:Work
         rdf:about="">
        <dc:format>image/svg+xml</dc:format>
        <dc:type
           rdf:resource="http://purl.org/dc/dcmitype/StillImage" />
        <dc:title></dc:title>
      </cc:Work>
    </rdf:RDF>
  </metadata>
  <g
     transform="translate(0,-105)"
     id="layer1">
    <path
       id="path14"
       transform="matrix(0.26458333,0,0,0.26458333,0,105)"
       d="M 362.83398,61.40625 C 196.36023,61.406714 61.406714,196.36023 61.40625,362.83398 61.405631,529.30849 196.35947,664.26321 362.83398,664.26367 529.30926,664.26429 664.26429,529.30926 664.26367,362.83398 664.26321,196.35947 529.30849,61.405631 362.83398,61.40625 Z m -5.59375,69.84766 c 127.17153,-3.07241 233.02767,96.98034 237.12305,224.12304 l 0.11914,7.45899 c -3e-5,35.12093 -7.81926,68.42771 -21.81711,98.2665 C 535.96295,539.33976 456.78329,593.73511 364.69922,594.47656 237.49513,595.50021 133.26441,493.75618 131.2168,366.56445 c -0.403,-25.02623 3.17963,-49.19514 10.16379,-71.89862 28.51161,-92.68298 113.71099,-160.94405 215.85964,-163.41192 z"
       style="fill:#ececec;stroke:none;stroke-width:15.11811043;stroke-miterlimit:4;stroke-dasharray:none;stroke-opacity:0.39215687" />
    <path
       transform="matrix(0.26458333,0,0,0.26458333,0,105)"
       id="path4872"
       d="M 322.22927,581.92234 C 275.64615,574.14975 220.12409,541.06906 190.26796,503.29821 157.10538,461.34439 141.77332,417.00118 141.77332,363.0425 c 0,-64.93502 18.99354,-110.59805 65.05245,-156.3949 33.00828,-32.82046 61.19282,-49.1825 103.30264,-59.97053 32.65619,-8.36613 93.36978,-5.53487 125.77398,5.86522 67.11006,23.60993 120.47059,80.68523 141.55396,151.40838 9.80859,32.90239 9.185,89.45829 -1.35941,123.2967 C 542.46258,535.18452 434.897,600.72142 322.22927,581.92234 Z"
       style="fill:#ff00ff;stroke:#780c78;stroke-width:56.48524857;stroke-miterlimit:4;stroke-dasharray:none;stroke-opacity:0.39215686" />
    <path
       d="m 123.56914,143.77428 a 10.874084,10.874084 0 0 1 -10.78655,10.87373 10.874084,10.874084 0 0 1 -10.96021,-10.69866 10.874084,10.874084 0 0 1 10.61008,-11.04599 10.874084,10.874084 0 0 1 11.13104,10.52082"
       id="path4876"
       style="fill:#ff00ff;stroke:none;stroke-width:4;stroke-miterlimit:4;stroke-dasharray:none;stroke-opacity:0.39215686" />
    <path
       d="m 55.358974,195.67331 a 17.299679,17.299679 0 0 1 -17.160412,17.29912 17.299679,17.299679 0 0 1 -17.436703,-17.0206 17.299679,17.299679 0 0 1 16.879673,-17.57315 17.299679,17.299679 0 0 1 17.708474,16.73765"
       id="path4898"
       style="fill:#ff00ff;stroke:none;stroke-width:4;stroke-miterlimit:4;stroke-dasharray:none;stroke-opacity:0.39215686" />
    <path
       d="m 146.30585,247.57236 a 10.874084,10.874084 0 0 1 -10.78655,10.87373 10.874084,10.874084 0 0 1 -10.96021,-10.69866 10.874084,10.874084 0 0 1 10.61008,-11.04599 10.874084,10.874084 0 0 1 11.13104,10.52082"
       id="path4902"
       style="fill:#ff00ff;stroke:none;stroke-width:4;stroke-miterlimit:4;stroke-dasharray:none;stroke-opacity:0.39215686" />
  </g>
</svg>
