<?xml version="1.0" standalone="no"?>
<!DOCTYPE svg PUBLIC "-//W3C//DTD SVG 20010904//EN"
 "http://www.w3.org/TR/2001/REC-SVG-20010904/DTD/svg10.dtd">
<svg version="1.0" xmlns="http://www.w3.org/2000/svg"
 width="700.000000pt" height="700.000000pt" viewBox="0 0 700.000000 700.000000"
 preserveAspectRatio="xMidYMid meet">
<metadata>
Created by potrace 1.11, written by Peter Selinger 2001-2013
</metadata>
<g transform="translate(0.000000,700.000000) scale(0.100000,-0.100000)"
fill="#000000" stroke="none">
<path d="M3989 5962 c-143 -48 -235 -147 -269 -290 -9 -41 -16 -52 -27 -47
-25 9 -422 6 -508 -4 -246 -29 -559 -138 -760 -263 -162 -101 -338 -249 -488
-410 -185 -198 -279 -328 -375 -518 l-53 -105 -122 0 c-113 -1 -128 -4 -205
-34 -212 -84 -359 -249 -408 -456 -21 -91 -15 -244 15 -335 45 -141 151 -271
288 -352 91 -53 160 -76 259 -85 l71 -6 11 -61 c20 -104 89 -304 151 -431 198
-410 506 -729 925 -957 196 -106 433 -193 606 -222 461 -77 916 -13 1329 186
79 38 144 68 145 66 2 -2 14 -24 29 -50 100 -174 361 -232 542 -120 59 36 93
70 129 132 47 78 60 135 53 236 -6 111 -45 193 -120 258 l-51 46 25 27 c75 81
202 287 276 449 141 304 191 572 179 959 -8 288 -37 445 -121 661 -120 309
-276 547 -514 785 -147 147 -298 265 -440 344 -65 36 -89 54 -85 65 3 8 12 42
21 74 43 167 -55 360 -224 438 -86 41 -197 48 -284 20z"/>
</g>
</svg>
